<?xml version="1.0" encoding="UTF-8" standalone="no"?>
<!-- Created with Inkscape (http://www.inkscape.org/) -->

<svg
   xmlns:dc="http://purl.org/dc/elements/1.1/"
   xmlns:cc="http://creativecommons.org/ns#"
   xmlns:rdf="http://www.w3.org/1999/02/22-rdf-syntax-ns#"
   xmlns:svg="http://www.w3.org/2000/svg"
   xmlns="http://www.w3.org/2000/svg"
   version="1.1"
   width="900.67999"
   height="200.60001"
   id="svg2">
  <defs
     id="defs4" />
  <metadata
     id="metadata7">
    <rdf:RDF>
      <cc:Work
         rdf:about="">
        <dc:format>image/svg+xml</dc:format>
        <dc:type
           rdf:resource="http://purl.org/dc/dcmitype/StillImage" />
        <dc:title></dc:title>
      </cc:Work>
    </rdf:RDF>
  </metadata>
  <g
     transform="translate(-27.442287,-194.43875)"
     id="layer1">
    <g
       transform="translate(70.710678,-30.304576)"
       id="text2985"
       style="font-size:144px;font-style:normal;font-variant:normal;font-weight:normal;font-stretch:normal;line-height:125%;letter-spacing:0px;word-spacing:0px;fill:#000000;fill-opacity:1;stroke:none;font-family:FreeSerif;-inkscape-font-specification:FreeSerif">
      <path
         d="m 76.690287,358.17474 c 2.495946,1e-5 4.799944,-0.14399 6.912,-0.432 2.20794,-0.28799 4.127938,-0.57599 5.76,-0.864 1.631935,-0.38399 3.215933,-0.95999 4.752,-1.728 1.53593,-0.76799 2.783929,-1.39199 3.744,-1.872 0.959927,-0.47999 1.919926,-1.24799 2.880003,-2.304 1.05592,-1.15199 1.82392,-1.96798 2.304,-2.448 0.57592,-0.47998 1.19992,-1.34398 1.872,-2.592 0.67192,-1.34398 1.10392,-2.20798 1.296,-2.592 0.19192,-0.38398 0.57592,-1.19998 1.152,-2.448 0.57591,-1.34397 0.86391,-2.06397 0.864,-2.16 l 3.6,0 -6.912,25.056 -77.472003,0 0,-2.736 c 5.279993,-0.384 8.687989,-1.34399 10.224,-2.88 1.535986,-1.63199 2.303986,-4.99199 2.304,-10.08 l 0,-63.936 c -1.4e-5,-5.08791 -0.768014,-8.39991 -2.304,-9.936 -1.536011,-1.63191 -4.944007,-2.63991 -10.224,-3.024 l 0,-2.736 40.608,0 0,2.736 c -5.664037,0.38409 -9.312033,1.39209 -10.944,3.024 -1.63203,1.53609 -2.448029,4.84809 -2.448,9.936 l 0,68.112 c -2.9e-5,2.49601 0.71997,4.12801 2.16,4.896 1.535967,0.67201 4.943964,1.00801 10.224,1.008 l 9.648,0"
         id="path3791" />
      <path
         d="m 149.74554,297.55074 c 9.21595,7e-5 16.79994,3.07206 22.752,9.216 5.95193,6.14405 8.92793,13.92004 8.928,23.328 -7e-5,9.98402 -3.07207,18.33602 -9.216,25.056 -6.14406,6.72 -13.72805,10.08 -22.752,10.08 -9.02403,0 -16.56002,-3.216 -22.608,-9.648 -5.95201,-6.52798 -8.92801,-14.63998 -8.928,-24.336 -10e-6,-9.88796 2.92799,-17.95195 8.784,-24.192 5.95198,-6.33594 13.63197,-9.50393 23.04,-9.504 m -18.864,26.64 c -2e-5,10.27203 1.87198,19.00802 5.616,26.208 3.74397,7.20001 8.63997,10.8 14.688,10.8 5.37595,0 9.59995,-2.30399 12.672,-6.912 3.07194,-4.60798 4.60794,-10.99198 4.608,-19.152 -6e-5,-9.88796 -1.92006,-17.95195 -5.76,-24.192 -3.84005,-6.23994 -8.78404,-9.35994 -14.832,-9.36 -5.08803,6e-5 -9.21603,2.06406 -12.384,6.192 -3.07202,4.12805 -4.60802,9.60005 -4.608,16.416"
         id="path3793" />
      <path
         d="m 226.96329,311.66274 c -1.44004,5e-5 -3.21604,-0.81595 -5.328,-2.448 -2.11204,-1.72794 -3.50404,-2.59194 -4.176,-2.592 -1.92003,6e-5 -4.08003,1.39206 -6.48,4.176 -2.40003,2.78405 -3.60003,5.32805 -3.6,7.632 l 0,32.4 c -3e-5,4.12801 0.81597,6.91201 2.448,8.352 1.63197,1.44 4.89597,2.256 9.792,2.448 l 0,2.16 -34.56,0 0,-2.16 c 4.60799,-0.864 7.43999,-1.824 8.496,-2.88 1.15199,-1.05599 1.72799,-3.40799 1.728,-7.056 l 0,-36 c -1e-5,-3.16795 -0.38401,-5.37595 -1.152,-6.624 -0.67201,-1.34394 -1.92001,-2.01594 -3.744,-2.016 -1.53601,6e-5 -3.21601,0.19206 -5.04,0.576 l 0,-2.304 c 7.67999,-2.49594 14.78398,-5.08794 21.312,-7.776 l 0.72,0.288 0,13.248 c 3.55197,-5.08794 6.57597,-8.59194 9.072,-10.512 2.49596,-2.01593 5.23196,-3.02393 8.208,-3.024 2.49595,7e-5 4.41595,0.67207 5.76,2.016 1.43995,1.34406 2.15995,3.21606 2.16,5.616 -5e-5,2.01606 -0.52805,3.60006 -1.584,4.752 -0.96005,1.15205 -2.30405,1.72805 -4.032,1.728"
         id="path3795" />
      <path
         d="m 245.55729,323.90274 c 0.19198,6.04803 1.00798,11.28003 2.448,15.696 1.43998,4.32002 3.31198,7.58402 5.616,9.792 2.30397,2.11201 4.60797,3.64801 6.912,4.608 2.39997,0.86401 4.89596,1.29601 7.488,1.296 4.60796,1e-5 8.59195,-1.15199 11.952,-3.456 3.45594,-2.30398 6.91194,-6.19198 10.368,-11.664 l 2.304,1.008 c -2.97606,7.77602 -7.10406,13.72801 -12.384,17.856 -5.28005,4.128 -11.32804,6.192 -18.144,6.192 -8.25603,0 -14.83202,-2.88 -19.728,-8.64 -4.80001,-5.85599 -7.20001,-13.72798 -7.2,-23.616 -1e-5,-10.65596 2.78399,-19.19995 8.352,-25.632 5.66398,-6.52794 12.91197,-9.79193 21.744,-9.792 7.29596,7e-5 12.95995,2.20806 16.992,6.624 4.03194,4.32006 6.57594,10.89605 7.632,19.728 l -44.352,0 m 0.288,-4.608 29.376,0 c -0.96005,-6.23995 -2.44804,-10.55994 -4.464,-12.96 -2.01604,-2.39994 -5.23204,-3.59994 -9.648,-3.6 -8.64002,6e-5 -13.72802,5.52006 -15.264,16.56"
         id="path3797" />
      <path
         d="m 294.51279,306.47874 0,-2.448 c 6.91199,-1.91994 13.63198,-4.07994 20.16,-6.48 l 1.008,0.288 0,10.8 c 5.95197,-4.51194 10.36796,-7.48794 13.248,-8.928 2.87996,-1.43993 5.90395,-2.15993 9.072,-2.16 7.58394,7e-5 12.67194,4.03206 15.264,12.096 7.48793,-8.06394 15.31192,-12.09593 23.472,-12.096 11.1359,7e-5 16.7039,8.54406 16.704,25.632 l 0,29.664 c -10e-5,5.37601 2.06389,8.208 6.192,8.496 l 3.744,0.288 0,2.16 -31.536,0 0,-2.16 c 4.22391,-0.48 6.86391,-1.296 7.92,-2.448 1.05591,-1.15199 1.58391,-3.79199 1.584,-7.92 l 0,-30.384 c -9e-5,-5.95195 -0.76809,-10.07995 -2.304,-12.384 -1.53609,-2.30394 -4.36809,-3.45594 -8.496,-3.456 -6.33608,6e-5 -11.56807,2.92806 -15.696,8.784 l 0,36.288 c -7e-5,4.51201 0.67193,7.53601 2.016,9.072 1.43993,1.536 4.22393,2.352 8.352,2.448 l 0,2.16 -32.256,0 0,-2.16 c 4.12795,-0.288 6.76795,-1.056 7.92,-2.304 1.24795,-1.24799 1.87195,-3.88799 1.872,-7.92 l 0,-31.248 c -5e-5,-10.07995 -3.16805,-15.11994 -9.504,-15.12 -2.49604,6e-5 -5.13604,0.57606 -7.92,1.728 -2.78403,1.05606 -5.08803,2.40006 -6.912,4.032 -1.44003,1.44005 -2.16003,2.35205 -2.16,2.736 l 0,40.608 c -3e-5,2.78401 0.67197,4.70401 2.016,5.76 1.34397,0.96 3.93597,1.536 7.776,1.728 l 0,2.16 -31.968,0 0,-2.16 c 4.03199,-0.096 6.71999,-0.816 8.064,-2.16 1.34399,-1.34399 2.01598,-3.98399 2.016,-7.92 l 0,-36.432 c -2e-5,-3.45595 -0.38402,-5.85594 -1.152,-7.2 -0.67201,-1.34394 -1.96801,-2.01594 -3.888,-2.016 -1.44001,6e-5 -2.97601,0.19206 -4.608,0.576"
         id="path3799" />
      <path
         d="m 448.64229,307.05474 c -1.15201,6e-5 -3.16801,0.19206 -6.048,0.576 l 0,-2.16 22.32,-7.92 0.576,0.432 0,51.12 c -3e-5,5.18401 0.57597,8.49601 1.728,9.936 1.24797,1.344 4.22397,2.208 8.928,2.592 l 0,2.16 -34.128,0 0,-2.16 c 4.99199,-0.288 8.11199,-1.152 9.36,-2.592 1.34398,-1.43999 2.01598,-4.75199 2.016,-9.936 l 0,-33.408 c -2e-5,-3.16795 -0.38402,-5.37595 -1.152,-6.624 -0.67202,-1.34394 -1.87201,-2.01594 -3.6,-2.016 m 9.504,-41.616 c 2.11198,1e-4 3.88797,0.7201 5.328,2.16 1.43997,1.4401 2.15997,3.16809 2.16,5.184 -3e-5,2.11209 -0.72003,3.88809 -2.16,5.328 -1.44003,1.34409 -3.21602,2.01608 -5.328,2.016 -2.01602,8e-5 -3.74402,-0.71991 -5.184,-2.16 -1.34402,-1.43991 -2.01601,-3.16791 -2.016,-5.184 -10e-6,-2.01591 0.71998,-3.7439 2.16,-5.184 1.43998,-1.4399 3.11998,-2.1599 5.04,-2.16"
         id="path3801" />
      <path
         d="m 477.29154,307.19874 0,-2.304 c 6.04799,-1.82394 12.95998,-4.27194 20.736,-7.344 l 0.864,0.288 0,11.088 c 6.14397,-7.58394 13.05596,-11.37593 20.736,-11.376 7.00795,7e-5 12.76794,2.88006 17.28,8.64 4.51193,5.76005 6.76793,13.10405 6.768,22.032 -7e-5,10.46403 -2.92807,19.24802 -8.784,26.352 -5.76006,7.104 -12.91205,10.656 -21.456,10.656 -3.07204,0 -5.66403,-0.432 -7.776,-1.296 -2.01603,-0.864 -4.27203,-2.496 -6.768,-4.896 l 0,22.608 c -3e-5,4.51198 0.76797,7.39198 2.304,8.64 1.53597,1.34397 4.99197,2.06397 10.368,2.16 l 0,2.592 -34.848,0 0,-2.448 c 4.22399,-0.38403 6.95999,-1.20003 8.208,-2.448 1.24799,-1.24802 1.87199,-3.74402 1.872,-7.488 l 0,-67.392 c -1e-5,-3.35995 -0.38401,-5.56794 -1.152,-6.624 -0.76801,-1.05594 -2.35201,-1.58394 -4.752,-1.584 -1.53601,6e-5 -2.73601,0.0481 -3.6,0.144 m 21.6,8.496 0,35.424 c -3e-5,2.11201 1.63197,4.22401 4.896,6.336 3.35997,2.11201 6.71996,3.168 10.08,3.168 5.18395,0 9.35995,-2.44799 12.528,-7.344 3.26394,-4.99198 4.89594,-11.47198 4.896,-19.44 -6e-5,-8.35196 -1.63206,-15.02395 -4.896,-20.016 -3.16805,-5.08794 -7.44005,-7.63194 -12.816,-7.632 -3.36004,6e-5 -6.67203,1.05606 -9.936,3.168 -3.16803,2.11205 -4.75203,4.22405 -4.752,6.336"
         id="path3803" />
      <path
         d="m 584.67279,300.43074 c 0.096,6e-5 0.86396,-0.47994 2.304,-1.44 l 1.584,0 0.576,19.584 -2.16,0 c -1.63204,-6.43195 -3.64804,-10.99194 -6.048,-13.68 -2.40004,-2.68794 -5.66403,-4.03194 -9.792,-4.032 -3.26403,6e-5 -5.95202,0.91206 -8.064,2.736 -2.01602,1.82406 -3.02402,4.17606 -3.024,7.056 -2e-5,4.12805 2.06398,7.39205 6.192,9.792 l 15.552,9.216 c 4.31995,2.59203 7.39195,5.23203 9.216,7.92 1.91995,2.59202 2.87995,5.66402 2.88,9.216 -5e-5,4.99201 -2.01605,9.31201 -6.048,12.96 -3.93604,3.648 -8.68804,5.472 -14.256,5.472 -2.40003,0 -5.61603,-0.432 -9.648,-1.296 -4.03202,-0.864 -6.52802,-1.296 -7.488,-1.296 -1.44001,0 -2.54401,0.576 -3.312,1.728 l -1.872,0 0,-22.464 2.304,0 c 1.53599,6.72002 3.35998,11.47201 5.472,14.256 3.07198,3.936 7.34397,5.904 12.816,5.904 3.64797,0 6.52796,-0.912 8.64,-2.736 2.20796,-1.91999 3.31196,-4.46399 3.312,-7.632 -4e-5,-4.31998 -2.49604,-7.91998 -7.488,-10.8 l -8.352,-4.752 c -6.14402,-3.45597 -10.51202,-6.76796 -13.104,-9.936 -2.49601,-3.16796 -3.74401,-6.76795 -3.744,-10.8 -1e-5,-5.18395 1.82399,-9.40794 5.472,-12.672 3.74398,-3.35993 8.44798,-5.03993 14.112,-5.04 3.16797,7e-5 6.14396,0.48007 8.928,1.44 2.78396,0.86406 4.46396,1.29606 5.04,1.296"
         id="path3805" />
      <path
         d="m 665.90904,356.59074 0,2.016 c -7.48806,2.016 -14.06406,4.176 -19.728,6.48 l -0.576,-0.288 0,-11.952 -6.192,6.192 c -4.12804,4.128 -9.07204,6.192 -14.832,6.192 -5.28003,0 -9.50402,-1.68 -12.672,-5.04 -3.16802,-3.45599 -4.75201,-8.01599 -4.752,-13.68 l 0,-36.288 c -1e-5,-3.35994 -0.62401,-5.66394 -1.872,-6.912 -1.24801,-1.34394 -3.60001,-2.11194 -7.056,-2.304 l 0,-2.016 21.024,0 0,46.944 c -3e-5,2.97602 1.00797,5.56801 3.024,7.776 2.01597,2.11201 4.41597,3.16801 7.2,3.168 4.41596,1e-5 8.63996,-1.63199 12.672,-4.896 1.82395,-1.43999 2.73595,-3.98398 2.736,-7.632 l 0,-33.84 c -5e-5,-3.55194 -0.67205,-5.90394 -2.016,-7.056 -1.24805,-1.15194 -4.12805,-1.82394 -8.64,-2.016 l 0,-2.448 22.752,0 0,49.392 c -6e-5,3.36001 0.52794,5.56801 1.584,6.624 1.15193,1.05601 3.35993,1.58401 6.624,1.584 l 0.72,0"
         id="path3807" />
      <path
         d="m 670.26279,306.47874 0,-2.448 c 6.91199,-1.91994 13.63198,-4.07994 20.16,-6.48 l 1.008,0.288 0,10.8 c 5.95197,-4.51194 10.36796,-7.48794 13.248,-8.928 2.87996,-1.43993 5.90395,-2.15993 9.072,-2.16 7.58394,7e-5 12.67194,4.03206 15.264,12.096 7.48793,-8.06394 15.31192,-12.09593 23.472,-12.096 11.1359,7e-5 16.7039,8.54406 16.704,25.632 l 0,29.664 c -10e-5,5.37601 2.06389,8.208 6.192,8.496 l 3.744,0.288 0,2.16 -31.536,0 0,-2.16 c 4.22391,-0.48 6.86391,-1.296 7.92,-2.448 1.05591,-1.15199 1.58391,-3.79199 1.584,-7.92 l 0,-30.384 c -9e-5,-5.95195 -0.76809,-10.07995 -2.304,-12.384 -1.53609,-2.30394 -4.36809,-3.45594 -8.496,-3.456 -6.33608,6e-5 -11.56807,2.92806 -15.696,8.784 l 0,36.288 c -7e-5,4.51201 0.67193,7.53601 2.016,9.072 1.43993,1.536 4.22393,2.352 8.352,2.448 l 0,2.16 -32.256,0 0,-2.16 c 4.12795,-0.288 6.76795,-1.056 7.92,-2.304 1.24795,-1.24799 1.87195,-3.88799 1.872,-7.92 l 0,-31.248 c -5e-5,-10.07995 -3.16805,-15.11994 -9.504,-15.12 -2.49604,6e-5 -5.13604,0.57606 -7.92,1.728 -2.78403,1.05606 -5.08803,2.40006 -6.912,4.032 -1.44003,1.44005 -2.16003,2.35205 -2.16,2.736 l 0,40.608 c -3e-5,2.78401 0.67197,4.70401 2.016,5.76 1.34397,0.96 3.93597,1.536 7.776,1.728 l 0,2.16 -31.968,0 0,-2.16 c 4.03199,-0.096 6.71999,-0.816 8.064,-2.16 1.34399,-1.34399 2.01598,-3.98399 2.016,-7.92 l 0,-36.432 c -2e-5,-3.45595 -0.38402,-5.85594 -1.152,-7.2 -0.67201,-1.34394 -1.96801,-2.01594 -3.888,-2.016 -1.44001,6e-5 -2.97601,0.19206 -4.608,0.576"
         id="path3809" />
    </g>
    <path
       d="m 447.66575,346.55142 88.89342,0"
       id="path3769"
       style="fill:none;stroke:#ff0000;stroke-width:15;stroke-linecap:butt;stroke-linejoin:miter;stroke-miterlimit:4;stroke-opacity:1;stroke-dasharray:none" />
  </g>
</svg>
